/* XPM */
static char * out_vdbViewerNode_xpm[] = {
"20 20 63 1",
" 	c None",
".	c #B30000",
"+	c #B40001",
"@	c #B30001",
"#	c #8C0003",
"$	c #870004",
"%	c #860005",
"&	c #7F0002",
"*	c #B20002",
"=	c #AF0000",
"-	c #AC0001",
";	c #950002",
">	c #920001",
",	c #8B0003",
"'	c #880003",
")	c #830003",
"!	c #7E0004",
"~	c #790003",
"{	c #AC0000",
"]	c #B10001",
"^	c #9C0002",
"/	c #970001",
"(	c #910002",
"_	c #8D0002",
":	c #880002",
"<	c #7E0003",
"[	c #740002",
"}	c #A40002",
"|	c #AA0001",
"1	c #A20002",
"2	c #9C0000",
"3	c #960001",
"4	c #730002",
"5	c #A10003",
"6	c #A20001",
"7	c #9A0001",
"8	c #750002",
"9	c #A30001",
"0	c #AA0000",
"a	c #A50000",
"b	c #A10001",
"c	c #9B0003",
"d	c #730003",
"e	c #AB0001",
"f	c #B20001",
"g	c #A90001",
"h	c #A60001",
"i	c #A00002",
"j	c #740003",
"k	c #AD0000",
"l	c #B10000",
"m	c #B10002",
"n	c #AF0001",
"o	c #A80000",
"p	c #A50001",
"q	c #930004",
"r	c #790002",
"s	c #B00002",
"t	c #8B0001",
"u	c #890002",
"v	c #820005",
"w	c #7F0005",
"x	c #780002",
"                    ",
"                    ",
"                    ",
"                    ",
"                    ",
"    .+@       #$%&  ",
"   @@* =-   ;>,')!~ ",
"  {]       ^/(_: <~[",
" }|       123(     4",
" 5-       67;      8",
" 90      abc       d",
"  ef    ghi        j",
"  kl@m]nop   q    r8",
"   slffn0     tuvwx ",
"                    ",
"                    ",
"                    ",
"                    ",
"                    ",
"                    "};
