/* XPM */
static char * vdbViewerNode_xpm[] = {
"50 50 251 2",
"  	c None",
". 	c #B00000",
"+ 	c #B50001",
"@ 	c #B20003",
"# 	c #B20004",
"$ 	c #B30003",
"% 	c #8F0104",
"& 	c #8A0007",
"* 	c #8B0002",
"= 	c #830002",
"- 	c #850007",
"; 	c #870007",
"> 	c #870008",
", 	c #810001",
"' 	c #B50000",
") 	c #B30000",
"! 	c #B40002",
"~ 	c #B20001",
"{ 	c #B70001",
"] 	c #B80001",
"^ 	c #B20002",
"/ 	c #B20000",
"( 	c #AF0001",
"_ 	c #930002",
": 	c #8B0004",
"< 	c #8D0001",
"[ 	c #860002",
"} 	c #850006",
"| 	c #850005",
"1 	c #880005",
"2 	c #7B0001",
"3 	c #7F0003",
"4 	c #7D0003",
"5 	c #B40000",
"6 	c #B80002",
"7 	c #B30002",
"8 	c #B30001",
"9 	c #AF0000",
"0 	c #AA0002",
"a 	c #A90002",
"b 	c #970001",
"c 	c #930001",
"d 	c #900001",
"e 	c #910001",
"f 	c #870002",
"g 	c #8A0005",
"h 	c #8A0004",
"i 	c #8B0001",
"j 	c #800003",
"k 	c #830005",
"l 	c #7C0002",
"m 	c #7C0005",
"n 	c #7B0003",
"o 	c #7A0001",
"p 	c #760003",
"q 	c #B10002",
"r 	c #AD0001",
"s 	c #B10000",
"t 	c #AF0002",
"u 	c #B50003",
"v 	c #AC0002",
"w 	c #9D0004",
"x 	c #990001",
"y 	c #920002",
"z 	c #950001",
"A 	c #8D0003",
"B 	c #890005",
"C 	c #890004",
"D 	c #800004",
"E 	c #810004",
"F 	c #820004",
"G 	c #830004",
"H 	c #7E0006",
"I 	c #7B0002",
"J 	c #790004",
"K 	c #770003",
"L 	c #780002",
"M 	c #AC0100",
"N 	c #AC0001",
"O 	c #B00001",
"P 	c #AD0002",
"Q 	c #AA0101",
"R 	c #A80100",
"S 	c #A80300",
"T 	c #970005",
"U 	c #950003",
"V 	c #940001",
"W 	c #910003",
"X 	c #930005",
"Y 	c #8E0003",
"Z 	c #8A0001",
"` 	c #810005",
" .	c #7D0006",
"..	c #820005",
"+.	c #7E0005",
"@.	c #790003",
"#.	c #740001",
"$.	c #740101",
"%.	c #A70000",
"&.	c #AC0000",
"*.	c #AD0004",
"=.	c #A70003",
"-.	c #9D0002",
";.	c #9B0002",
">.	c #910002",
",.	c #880002",
"'.	c #8A0003",
").	c #8A0000",
"!.	c #7C0003",
"~.	c #810007",
"{.	c #7D0005",
"].	c #770005",
"^.	c #740005",
"/.	c #730003",
"(.	c #730001",
"_.	c #A70002",
":.	c #AA0001",
"<.	c #B00002",
"[.	c #9F0006",
"}.	c #9E0002",
"|.	c #9A0001",
"1.	c #960002",
"2.	c #900003",
"3.	c #880001",
"4.	c #7C0200",
"5.	c #7C0001",
"6.	c #750004",
"7.	c #740003",
"8.	c #750003",
"9.	c #720001",
"0.	c #A50200",
"a.	c #AB0001",
"b.	c #AE0001",
"c.	c #A10002",
"d.	c #A00003",
"e.	c #970000",
"f.	c #940003",
"g.	c #900002",
"h.	c #7A0002",
"i.	c #730002",
"j.	c #9D0106",
"k.	c #A40001",
"l.	c #A80000",
"m.	c #9E0003",
"n.	c #A30100",
"o.	c #9F0001",
"p.	c #780006",
"q.	c #720003",
"r.	c #740008",
"s.	c #9E0004",
"t.	c #A50002",
"u.	c #A20002",
"v.	c #A10100",
"w.	c #A00001",
"x.	c #980001",
"y.	c #920003",
"z.	c #760005",
"A.	c #750002",
"B.	c #710007",
"C.	c #A30002",
"D.	c #A70101",
"E.	c #A20001",
"F.	c #980000",
"G.	c #7A0105",
"H.	c #770002",
"I.	c #720004",
"J.	c #9D0005",
"K.	c #A40002",
"L.	c #A60000",
"M.	c #AE0000",
"N.	c #A80002",
"O.	c #A60001",
"P.	c #9C0001",
"Q.	c #970002",
"R.	c #940004",
"S.	c #750100",
"T.	c #700001",
"U.	c #A60002",
"V.	c #A80001",
"W.	c #AD0000",
"X.	c #A70001",
"Y.	c #980005",
"Z.	c #720002",
"`.	c #6F0003",
" +	c #6C0003",
".+	c #A30001",
"++	c #A50000",
"@+	c #A00002",
"#+	c #9D0003",
"$+	c #710001",
"%+	c #730005",
"&+	c #9B0006",
"*+	c #730008",
"=+	c #750001",
"-+	c #A30200",
";+	c #B60300",
">+	c #AB0004",
",+	c #A10001",
"'+	c #780003",
")+	c #AA0003",
"!+	c #AB0000",
"~+	c #B10001",
"{+	c #A50001",
"]+	c #6C0001",
"^+	c #B60002",
"/+	c #B00005",
"(+	c #B60001",
"_+	c #B70002",
":+	c #9E0005",
"<+	c #9B0300",
"[+	c #760001",
"}+	c #700108",
"|+	c #AD0102",
"1+	c #A70100",
"2+	c #A4000A",
"3+	c #9D0102",
"4+	c #990005",
"5+	c #8E0005",
"6+	c #7C0004",
"7+	c #B00101",
"8+	c #AF0100",
"9+	c #B50002",
"0+	c #A50100",
"a+	c #940002",
"b+	c #900101",
"c+	c #8B0300",
"d+	c #88000A",
"e+	c #7F0007",
"f+	c #790002",
"g+	c #B40001",
"h+	c #B50100",
"i+	c #950200",
"j+	c #8D0002",
"k+	c #880006",
"l+	c #810006",
"m+	c #820006",
"n+	c #760004",
"o+	c #730104",
"p+	c #AC0007",
"q+	c #B10003",
"r+	c #8C0101",
"s+	c #8E0001",
"t+	c #850001",
"u+	c #800006",
"v+	c #800005",
"w+	c #B40200",
"x+	c #AF0101",
"y+	c #8D0101",
"z+	c #860003",
"A+	c #860004",
"B+	c #7E0103",
"                                                                                                    ",
"                                                                                                    ",
"                                                                                                    ",
"                                                                                                    ",
"                                                                                                    ",
"                                                                                                    ",
"                                                                                                    ",
"                                                                                                    ",
"                                                                                                    ",
"                                                                                                    ",
"                                                                                                    ",
"                                                                                                    ",
"                                                                                                    ",
"                  . + @ # + $                                     % & * = - ; > ,                   ",
"              ' ) ! ~ { ] ^ / ) (                             _ : : < [ } | 1 = 2 3 4               ",
"          ! ~ 5 6 { ) 7 8 7 ) ) 9 0 a                     b c d e < f g h i j k l m n o p           ",
"        q r 7 { s t u         v 7 7 (                 w x y z z A B g C f D E F G H I J K L         ",
"      M N t O / P                   Q R             S T U x V W X Y f B B Z = `  ...+. .@.#.$.      ",
"      %.&.q 7                         *.=.          x -.;.c d >.>.Y 1 ,.'.).!.~...l {.].^./.(.      ",
"    _.:.s s <.                                    [.}.|.c 1.y 2.W < 3.            4.5.6.7.8./.9.    ",
"    0.a.b.b.                                    c.d.|.e.b x f.W g.                  h.h.K ^./.i.    ",
"  j.k.l.a.t                                   m.n.o.x x x U 1.y                       p.7.q././.r.  ",
"  s.t.&.N                                     u.v.w.x x.|.y.2.                          z.p A.7.B.  ",
"  w C.a.t                                   D.E.}.c.F.e.1.f.                            G.H.A.7.I.  ",
"  J.K.L.M.6                               N.O.-.}.c.P.Q.R.                                S./.I.T.  ",
"  E.U.V.W.O                             N.X.l.}.o.w.m.Y.                                  p Z.`. +  ",
"  }.k.N N P                           0 N..+++u.@+#+T w                                   ].$+`.%+  ",
"  J.L.l.N q ^                         _.:.++u.O.}.&+-.                                  *+K K I.=+  ",
"    -+a.<.<.~ ;+                  >+a :.L.N.U.o.@+,+                                    l '+q.$+    ",
"    )+l.!+<.<.~+t               <.!+&.v _.{+o._.P.                                      L '+`.]+    ",
"      a.b.t 8 ^+<.8 <./+(+9 (+_+7 q !+L.N.V.++:+<+        x.                          I [+9.I.}+    ",
"      |+b.s t O ~+{ t q ) ~+<.O <.!+%.X.1+{+[.2+          3+4+5+                    5.6+@.[+K       ",
"        7+8+5 9+O ] t _+( { <.t <.t :.%.l.0+                f.a+>.b+c+        d+e+I 2 L f+f+        ",
"          g+8 9 ~+q (+8+^+q h+~+t r !+a.N.                    i+j+: < [ ,.k+l+m+..{.I n+o+          ",
"              p+q+s + ~+' s + ( . N a.                          r+j+s+t+f k+u+v+` H J               ",
"                  w+$ 9+( (+$ x+~+                                  A y+z+A+E v+B+                  ",
"                                                                                                    ",
"                                                                                                    ",
"                                                                                                    ",
"                                                                                                    ",
"                                                                                                    ",
"                                                                                                    ",
"                                                                                                    ",
"                                                                                                    ",
"                                                                                                    ",
"                                                                                                    ",
"                                                                                                    ",
"                                                                                                    ",
"                                                                                                    ",
"                                                                                                    "};
